<svg id="canvas" height="auto" xmlns="http://www.w3.org/2000/svg" version="1.1" xmlns:xlink="http://www.w3.org/1999/xlink" viewBox="0 0 900 512" fill="#0f2454" width="auto" style="width: auto; height: auto;"><rect width="900" height="512" fill="#000000"/><defs><linearGradient gradientTransform="matrix(1,0,0,1,0,0)" id="SvgjsLinearGradient2905"><stop stop-color="#cc0099" offset="0"/><stop stop-color="#cc3300" offset="1"/></linearGradient><linearGradient gradientTransform="matrix(1,0,0,1,0,0)" id="SvgjsLinearGradient2906"><stop stop-color="#ff0066" offset="0"/><stop stop-color="#ff9900" offset="1"/></linearGradient><linearGradient gradientTransform="matrix(1,0,0,1,0,0)" id="SvgjsLinearGradient2907"><stop stop-color="#ff0099" offset="0"/><stop stop-color="#ff6600" offset="1"/></linearGradient><linearGradient gradientTransform="matrix(1,0,0,1,0,0)"><stop stop-color="#ff33cc" offset="0"/><stop stop-color="#ff6633" offset="1"/></linearGradient><linearGradient gradientTransform="matrix(1,0,0,1,0,0)"><stop stop-color="#ff66ff" offset="0"/><stop stop-color="#ff6666" offset="1"/></linearGradient></defs><rect width="246.75246371236983" height="246.75246371236983" stroke-width="2" stroke="url(#SvgjsLinearGradient2905)" fill="none" x="-119.67632427528966" y="251.59882810076238"/><polygon points="650.880159264711,160.29613981500182 873.7858007071563,546.380036087048 427.9745178222656,546.380036087048" stroke-width="2" stroke="url(#SvgjsLinearGradient2906)" fill="none"/><circle r="94.34974364724646" cx="431.4887386782126" cy="68.59728430827765" stroke-width="2" stroke="url(#SvgjsLinearGradient2907)" fill="none"/><circle r="0.5" cx="23" cy="23" fill="#ffffff"/><circle r="0.5" cx="68" cy="23" fill="#ffffff"/><circle r="0.5" cx="113" cy="23" fill="#ffffff"/><circle r="0.5" cx="158" cy="23" fill="#ffffff"/><circle r="0.5" cx="203" cy="23" fill="#ffffff"/><circle r="0.5" cx="248" cy="23" fill="#ffffff"/><circle r="0.5" cx="293" cy="23" fill="#ffffff"/><circle r="0.5" cx="338" cy="23" fill="#ffffff"/><circle r="0.5" cx="383" cy="23" fill="#ffffff"/><circle r="0.5" cx="428" cy="23" fill="#ffffff"/><circle r="0.5" cx="473" cy="23" fill="#ffffff"/><circle r="0.5" cx="518" cy="23" fill="#ffffff"/><circle r="0.5" cx="563" cy="23" fill="#ffffff"/><circle r="0.5" cx="608" cy="23" fill="#ffffff"/><circle r="0.5" cx="653" cy="23" fill="#ffffff"/><circle r="0.5" cx="698" cy="23" fill="#ffffff"/><circle r="0.5" cx="743" cy="23" fill="#ffffff"/><circle r="0.5" cx="788" cy="23" fill="#ffffff"/><circle r="0.5" cx="833" cy="23" fill="#ffffff"/><circle r="0.5" cx="878" cy="23" fill="#ffffff"/><circle r="0.5" cx="923" cy="23" fill="#ffffff"/><circle r="0.5" cx="23" cy="68" fill="#ffffff"/><circle r="0.5" cx="68" cy="68" fill="#ffffff"/><circle r="0.5" cx="113" cy="68" fill="#ffffff"/><circle r="0.5" cx="158" cy="68" fill="#ffffff"/><circle r="0.5" cx="203" cy="68" fill="#ffffff"/><circle r="0.5" cx="248" cy="68" fill="#ffffff"/><circle r="0.5" cx="293" cy="68" fill="#ffffff"/><circle r="0.5" cx="338" cy="68" fill="#ffffff"/><circle r="0.5" cx="383" cy="68" fill="#ffffff"/><circle r="0.5" cx="428" cy="68" fill="#ffffff"/><circle r="0.5" cx="473" cy="68" fill="#ffffff"/><circle r="0.5" cx="518" cy="68" fill="#ffffff"/><circle r="0.5" cx="563" cy="68" fill="#ffffff"/><circle r="0.5" cx="608" cy="68" fill="#ffffff"/><circle r="0.5" cx="653" cy="68" fill="#ffffff"/><circle r="0.5" cx="698" cy="68" fill="#ffffff"/><circle r="0.5" cx="743" cy="68" fill="#ffffff"/><circle r="0.5" cx="788" cy="68" fill="#ffffff"/><circle r="0.5" cx="833" cy="68" fill="#ffffff"/><circle r="0.5" cx="878" cy="68" fill="#ffffff"/><circle r="0.5" cx="923" cy="68" fill="#ffffff"/><circle r="0.5" cx="23" cy="113" fill="#ffffff"/><circle r="0.5" cx="68" cy="113" fill="#ffffff"/><circle r="0.5" cx="113" cy="113" fill="#ffffff"/><circle r="0.5" cx="158" cy="113" fill="#ffffff"/><circle r="0.5" cx="203" cy="113" fill="#ffffff"/><circle r="0.5" cx="248" cy="113" fill="#ffffff"/><circle r="0.5" cx="293" cy="113" fill="#ffffff"/><circle r="0.5" cx="338" cy="113" fill="#ffffff"/><circle r="0.5" cx="383" cy="113" fill="#ffffff"/><circle r="0.5" cx="428" cy="113" fill="#ffffff"/><circle r="0.5" cx="473" cy="113" fill="#ffffff"/><circle r="0.5" cx="518" cy="113" fill="#ffffff"/><circle r="0.5" cx="563" cy="113" fill="#ffffff"/><circle r="0.5" cx="608" cy="113" fill="#ffffff"/><circle r="0.5" cx="653" cy="113" fill="#ffffff"/><circle r="0.5" cx="698" cy="113" fill="#ffffff"/><circle r="0.5" cx="743" cy="113" fill="#ffffff"/><circle r="0.5" cx="788" cy="113" fill="#ffffff"/><circle r="0.5" cx="833" cy="113" fill="#ffffff"/><circle r="0.5" cx="878" cy="113" fill="#ffffff"/><circle r="0.5" cx="923" cy="113" fill="#ffffff"/><circle r="0.5" cx="23" cy="158" fill="#ffffff"/><circle r="0.5" cx="68" cy="158" fill="#ffffff"/><circle r="0.5" cx="113" cy="158" fill="#ffffff"/><circle r="0.5" cx="158" cy="158" fill="#ffffff"/><circle r="0.5" cx="203" cy="158" fill="#ffffff"/><circle r="0.5" cx="248" cy="158" fill="#ffffff"/><circle r="0.5" cx="293" cy="158" fill="#ffffff"/><circle r="0.5" cx="338" cy="158" fill="#ffffff"/><circle r="0.5" cx="383" cy="158" fill="#ffffff"/><circle r="0.5" cx="428" cy="158" fill="#ffffff"/><circle r="0.5" cx="473" cy="158" fill="#ffffff"/><circle r="0.5" cx="518" cy="158" fill="#ffffff"/><circle r="0.5" cx="563" cy="158" fill="#ffffff"/><circle r="0.5" cx="608" cy="158" fill="#ffffff"/><circle r="0.5" cx="653" cy="158" fill="#ffffff"/><circle r="0.5" cx="698" cy="158" fill="#ffffff"/><circle r="0.5" cx="743" cy="158" fill="#ffffff"/><circle r="0.5" cx="788" cy="158" fill="#ffffff"/><circle r="0.5" cx="833" cy="158" fill="#ffffff"/><circle r="0.5" cx="878" cy="158" fill="#ffffff"/><circle r="0.5" cx="923" cy="158" fill="#ffffff"/><circle r="0.5" cx="23" cy="203" fill="#ffffff"/><circle r="0.5" cx="68" cy="203" fill="#ffffff"/><circle r="0.5" cx="113" cy="203" fill="#ffffff"/><circle r="0.5" cx="158" cy="203" fill="#ffffff"/><circle r="0.5" cx="203" cy="203" fill="#ffffff"/><circle r="0.5" cx="248" cy="203" fill="#ffffff"/><circle r="0.5" cx="293" cy="203" fill="#ffffff"/><circle r="0.5" cx="338" cy="203" fill="#ffffff"/><circle r="0.5" cx="383" cy="203" fill="#ffffff"/><circle r="0.5" cx="428" cy="203" fill="#ffffff"/><circle r="0.5" cx="473" cy="203" fill="#ffffff"/><circle r="0.5" cx="518" cy="203" fill="#ffffff"/><circle r="0.5" cx="563" cy="203" fill="#ffffff"/><circle r="0.5" cx="608" cy="203" fill="#ffffff"/><circle r="0.5" cx="653" cy="203" fill="#ffffff"/><circle r="0.5" cx="698" cy="203" fill="#ffffff"/><circle r="0.5" cx="743" cy="203" fill="#ffffff"/><circle r="0.5" cx="788" cy="203" fill="#ffffff"/><circle r="0.5" cx="833" cy="203" fill="#ffffff"/><circle r="0.5" cx="878" cy="203" fill="#ffffff"/><circle r="0.5" cx="923" cy="203" fill="#ffffff"/><circle r="0.5" cx="23" cy="248" fill="#ffffff"/><circle r="0.5" cx="68" cy="248" fill="#ffffff"/><circle r="0.5" cx="113" cy="248" fill="#ffffff"/><circle r="0.5" cx="158" cy="248" fill="#ffffff"/><circle r="0.5" cx="203" cy="248" fill="#ffffff"/><circle r="0.5" cx="248" cy="248" fill="#ffffff"/><circle r="0.5" cx="293" cy="248" fill="#ffffff"/><circle r="0.5" cx="338" cy="248" fill="#ffffff"/><circle r="0.5" cx="383" cy="248" fill="#ffffff"/><circle r="0.5" cx="428" cy="248" fill="#ffffff"/><circle r="0.5" cx="473" cy="248" fill="#ffffff"/><circle r="0.5" cx="518" cy="248" fill="#ffffff"/><circle r="0.5" cx="563" cy="248" fill="#ffffff"/><circle r="0.5" cx="608" cy="248" fill="#ffffff"/><circle r="0.5" cx="653" cy="248" fill="#ffffff"/><circle r="0.5" cx="698" cy="248" fill="#ffffff"/><circle r="0.5" cx="743" cy="248" fill="#ffffff"/><circle r="0.5" cx="788" cy="248" fill="#ffffff"/><circle r="0.5" cx="833" cy="248" fill="#ffffff"/><circle r="0.5" cx="878" cy="248" fill="#ffffff"/><circle r="0.5" cx="923" cy="248" fill="#ffffff"/><circle r="0.5" cx="23" cy="293" fill="#ffffff"/><circle r="0.5" cx="68" cy="293" fill="#ffffff"/><circle r="0.5" cx="113" cy="293" fill="#ffffff"/><circle r="0.5" cx="158" cy="293" fill="#ffffff"/><circle r="0.5" cx="203" cy="293" fill="#ffffff"/><circle r="0.5" cx="248" cy="293" fill="#ffffff"/><circle r="0.5" cx="293" cy="293" fill="#ffffff"/><circle r="0.5" cx="338" cy="293" fill="#ffffff"/><circle r="0.5" cx="383" cy="293" fill="#ffffff"/><circle r="0.5" cx="428" cy="293" fill="#ffffff"/><circle r="0.5" cx="473" cy="293" fill="#ffffff"/><circle r="0.5" cx="518" cy="293" fill="#ffffff"/><circle r="0.5" cx="563" cy="293" fill="#ffffff"/><circle r="0.5" cx="608" cy="293" fill="#ffffff"/><circle r="0.5" cx="653" cy="293" fill="#ffffff"/><circle r="0.5" cx="698" cy="293" fill="#ffffff"/><circle r="0.5" cx="743" cy="293" fill="#ffffff"/><circle r="0.5" cx="788" cy="293" fill="#ffffff"/><circle r="0.5" cx="833" cy="293" fill="#ffffff"/><circle r="0.5" cx="878" cy="293" fill="#ffffff"/><circle r="0.5" cx="923" cy="293" fill="#ffffff"/><circle r="0.5" cx="23" cy="338" fill="#ffffff"/><circle r="0.5" cx="68" cy="338" fill="#ffffff"/><circle r="0.5" cx="113" cy="338" fill="#ffffff"/><circle r="0.5" cx="158" cy="338" fill="#ffffff"/><circle r="0.5" cx="203" cy="338" fill="#ffffff"/><circle r="0.5" cx="248" cy="338" fill="#ffffff"/><circle r="0.5" cx="293" cy="338" fill="#ffffff"/><circle r="0.5" cx="338" cy="338" fill="#ffffff"/><circle r="0.5" cx="383" cy="338" fill="#ffffff"/><circle r="0.5" cx="428" cy="338" fill="#ffffff"/><circle r="0.5" cx="473" cy="338" fill="#ffffff"/><circle r="0.5" cx="518" cy="338" fill="#ffffff"/><circle r="0.5" cx="563" cy="338" fill="#ffffff"/><circle r="0.5" cx="608" cy="338" fill="#ffffff"/><circle r="0.5" cx="653" cy="338" fill="#ffffff"/><circle r="0.5" cx="698" cy="338" fill="#ffffff"/><circle r="0.5" cx="743" cy="338" fill="#ffffff"/><circle r="0.5" cx="788" cy="338" fill="#ffffff"/><circle r="0.5" cx="833" cy="338" fill="#ffffff"/><circle r="0.5" cx="878" cy="338" fill="#ffffff"/><circle r="0.5" cx="923" cy="338" fill="#ffffff"/><circle r="0.5" cx="23" cy="383" fill="#ffffff"/><circle r="0.5" cx="68" cy="383" fill="#ffffff"/><circle r="0.5" cx="113" cy="383" fill="#ffffff"/><circle r="0.5" cx="158" cy="383" fill="#ffffff"/><circle r="0.5" cx="203" cy="383" fill="#ffffff"/><circle r="0.5" cx="248" cy="383" fill="#ffffff"/><circle r="0.5" cx="293" cy="383" fill="#ffffff"/><circle r="0.5" cx="338" cy="383" fill="#ffffff"/><circle r="0.5" cx="383" cy="383" fill="#ffffff"/><circle r="0.5" cx="428" cy="383" fill="#ffffff"/><circle r="0.5" cx="473" cy="383" fill="#ffffff"/><circle r="0.5" cx="518" cy="383" fill="#ffffff"/><circle r="0.5" cx="563" cy="383" fill="#ffffff"/><circle r="0.5" cx="608" cy="383" fill="#ffffff"/><circle r="0.5" cx="653" cy="383" fill="#ffffff"/><circle r="0.5" cx="698" cy="383" fill="#ffffff"/><circle r="0.5" cx="743" cy="383" fill="#ffffff"/><circle r="0.5" cx="788" cy="383" fill="#ffffff"/><circle r="0.5" cx="833" cy="383" fill="#ffffff"/><circle r="0.5" cx="878" cy="383" fill="#ffffff"/><circle r="0.5" cx="923" cy="383" fill="#ffffff"/><circle r="0.5" cx="23" cy="428" fill="#ffffff"/><circle r="0.5" cx="68" cy="428" fill="#ffffff"/><circle r="0.5" cx="113" cy="428" fill="#ffffff"/><circle r="0.5" cx="158" cy="428" fill="#ffffff"/><circle r="0.5" cx="203" cy="428" fill="#ffffff"/><circle r="0.5" cx="248" cy="428" fill="#ffffff"/><circle r="0.5" cx="293" cy="428" fill="#ffffff"/><circle r="0.5" cx="338" cy="428" fill="#ffffff"/><circle r="0.5" cx="383" cy="428" fill="#ffffff"/><circle r="0.5" cx="428" cy="428" fill="#ffffff"/><circle r="0.5" cx="473" cy="428" fill="#ffffff"/><circle r="0.5" cx="518" cy="428" fill="#ffffff"/><circle r="0.5" cx="563" cy="428" fill="#ffffff"/><circle r="0.5" cx="608" cy="428" fill="#ffffff"/><circle r="0.5" cx="653" cy="428" fill="#ffffff"/><circle r="0.5" cx="698" cy="428" fill="#ffffff"/><circle r="0.5" cx="743" cy="428" fill="#ffffff"/><circle r="0.5" cx="788" cy="428" fill="#ffffff"/><circle r="0.5" cx="833" cy="428" fill="#ffffff"/><circle r="0.5" cx="878" cy="428" fill="#ffffff"/><circle r="0.5" cx="923" cy="428" fill="#ffffff"/><circle r="0.5" cx="23" cy="473" fill="#ffffff"/><circle r="0.5" cx="68" cy="473" fill="#ffffff"/><circle r="0.5" cx="113" cy="473" fill="#ffffff"/><circle r="0.5" cx="158" cy="473" fill="#ffffff"/><circle r="0.5" cx="203" cy="473" fill="#ffffff"/><circle r="0.5" cx="248" cy="473" fill="#ffffff"/><circle r="0.5" cx="293" cy="473" fill="#ffffff"/><circle r="0.5" cx="338" cy="473" fill="#ffffff"/><circle r="0.5" cx="383" cy="473" fill="#ffffff"/><circle r="0.5" cx="428" cy="473" fill="#ffffff"/><circle r="0.5" cx="473" cy="473" fill="#ffffff"/><circle r="0.5" cx="518" cy="473" fill="#ffffff"/><circle r="0.5" cx="563" cy="473" fill="#ffffff"/><circle r="0.5" cx="608" cy="473" fill="#ffffff"/><circle r="0.5" cx="653" cy="473" fill="#ffffff"/><circle r="0.5" cx="698" cy="473" fill="#ffffff"/><circle r="0.5" cx="743" cy="473" fill="#ffffff"/><circle r="0.5" cx="788" cy="473" fill="#ffffff"/><circle r="0.5" cx="833" cy="473" fill="#ffffff"/><circle r="0.5" cx="878" cy="473" fill="#ffffff"/><circle r="0.5" cx="923" cy="473" fill="#ffffff"/><circle r="0.5" cx="23" cy="518" fill="#ffffff"/><circle r="0.5" cx="68" cy="518" fill="#ffffff"/><circle r="0.5" cx="113" cy="518" fill="#ffffff"/><circle r="0.5" cx="158" cy="518" fill="#ffffff"/><circle r="0.5" cx="203" cy="518" fill="#ffffff"/><circle r="0.5" cx="248" cy="518" fill="#ffffff"/><circle r="0.5" cx="293" cy="518" fill="#ffffff"/><circle r="0.5" cx="338" cy="518" fill="#ffffff"/><circle r="0.5" cx="383" cy="518" fill="#ffffff"/><circle r="0.5" cx="428" cy="518" fill="#ffffff"/><circle r="0.5" cx="473" cy="518" fill="#ffffff"/><circle r="0.5" cx="518" cy="518" fill="#ffffff"/><circle r="0.5" cx="563" cy="518" fill="#ffffff"/><circle r="0.5" cx="608" cy="518" fill="#ffffff"/><circle r="0.5" cx="653" cy="518" fill="#ffffff"/><circle r="0.5" cx="698" cy="518" fill="#ffffff"/><circle r="0.5" cx="743" cy="518" fill="#ffffff"/><circle r="0.5" cx="788" cy="518" fill="#ffffff"/><circle r="0.5" cx="833" cy="518" fill="#ffffff"/><circle r="0.5" cx="878" cy="518" fill="#ffffff"/><circle r="0.5" cx="923" cy="518" fill="#ffffff"/><circle r="0.5" cx="23" cy="563" fill="#ffffff"/><circle r="0.5" cx="68" cy="563" fill="#ffffff"/><circle r="0.5" cx="113" cy="563" fill="#ffffff"/><circle r="0.5" cx="158" cy="563" fill="#ffffff"/><circle r="0.5" cx="203" cy="563" fill="#ffffff"/><circle r="0.5" cx="248" cy="563" fill="#ffffff"/><circle r="0.5" cx="293" cy="563" fill="#ffffff"/><circle r="0.5" cx="338" cy="563" fill="#ffffff"/><circle r="0.5" cx="383" cy="563" fill="#ffffff"/><circle r="0.5" cx="428" cy="563" fill="#ffffff"/><circle r="0.5" cx="473" cy="563" fill="#ffffff"/><circle r="0.5" cx="518" cy="563" fill="#ffffff"/><circle r="0.5" cx="563" cy="563" fill="#ffffff"/><circle r="0.5" cx="608" cy="563" fill="#ffffff"/><circle r="0.5" cx="653" cy="563" fill="#ffffff"/><circle r="0.5" cx="698" cy="563" fill="#ffffff"/><circle r="0.5" cx="743" cy="563" fill="#ffffff"/><circle r="0.5" cx="788" cy="563" fill="#ffffff"/><circle r="0.5" cx="833" cy="563" fill="#ffffff"/><circle r="0.5" cx="878" cy="563" fill="#ffffff"/><circle r="0.5" cx="923" cy="563" fill="#ffffff"/></svg>